<svg width="16" height="16" viewBox="0 0 16 16" fill="none" xmlns="http://www.w3.org/2000/svg">
<path fill-rule="evenodd" clip-rule="evenodd" d="M13 3.26319C13 3.54405 12.9485 3.81289 12.8545 4.06079H14C14.5523 4.06079 15 4.50851 15 5.06079V8.01319C15 8.56547 14.5523 9.01319 14 9.01319H13.4922V12.9871C13.4922 14.0916 12.5968 14.9871 11.4922 14.9871H4.49219C3.38762 14.9871 2.49219 14.0916 2.49219 12.9871V9.01319H2C1.44772 9.01319 1 8.56547 1 8.01319V5.06079C1 4.50851 1.44772 4.06079 2 4.06079H3.14547C3.05146 3.81289 3 3.54405 3 3.26319C3 2.02054 4.00736 1.01318 5.25 1.01318C6.26493 1.01318 7.25053 1.86322 8 2.8376C8.74947 1.86322 9.73507 1.01318 10.75 1.01318C11.9926 1.01318 13 2.02054 13 3.26319ZM7.33325 9.01319H3.99219V12.9871C3.99219 13.2632 4.21605 13.4871 4.49219 13.4871H7.33325L7.33325 9.01319ZM7.33325 7.48706H2.5V5.56079H7.33325V7.48706ZM8.83325 9.01319L8.83325 13.4871H11.4922C11.7683 13.4871 11.9922 13.2632 11.9922 12.9871V9.01319H8.83325ZM8.83325 7.48706V5.56079H13.5V7.51319H13.4922V7.48706H8.83325ZM7.00283 4.01319C6.96378 3.95758 6.92375 3.90212 6.88279 3.84703C6.5592 3.41174 6.21408 3.04769 5.88665 2.80534C5.55081 2.55677 5.34036 2.51318 5.25 2.51318C4.83579 2.51318 4.5 2.84897 4.5 3.26319C4.5 3.6774 4.83579 4.01319 5.25 4.01319H7.00283ZM8.99717 4.01319C9.03622 3.95758 9.07625 3.90212 9.11721 3.84703C9.4408 3.41174 9.78592 3.04769 10.1134 2.80534C10.4492 2.55677 10.6596 2.51318 10.75 2.51318C11.1642 2.51318 11.5 2.84897 11.5 3.26319C11.5 3.6774 11.1642 4.01319 10.75 4.01319H8.99717Z" fill="#673DE6"/>
</svg>
